<svg xmlns="http://www.w3.org/2000/svg" xmlns:xlink="http://www.w3.org/1999/xlink" width="200" height="200" class="icon" p-id="1300" t="1635246644012" version="1.1" viewBox="0 0 1024 1024"><defs><style type="text/css"/></defs><path fill="#303133" d="M924 0H100C45 0 0 45 0 100v824c0 55 45 100 100 100h824c55 0 100-45 100-100V100c0-55-45-100-100-100z m55 924c0 14.58-5.75 28.36-16.19 38.81S938.58 979 924 979H100c-14.58 0-28.36-5.75-38.81-16.19S45 938.58 45 924V315h934v609zM45 270V100c0-14.58 5.75-28.36 16.19-38.81C71.64 50.75 85.42 45 100 45h824c14.58 0 28.36 5.75 38.81 16.19C973.25 71.64 979 85.42 979 100v170H45z" p-id="1301"/><path fill="#d81e06" d="M157.5 157.5m-22.5 0a22.5 22.5 0 1 0 45 0 22.5 22.5 0 1 0-45 0Z" p-id="1302"/><path fill="#f4ea2a" d="M292.5 157.5m-22.5 0a22.5 22.5 0 1 0 45 0 22.5 22.5 0 1 0-45 0Z" p-id="1303"/><path fill="#1afa29" d="M427.5 157.5m-22.5 0a22.5 22.5 0 1 0 45 0 22.5 22.5 0 1 0-45 0Z" p-id="1304"/><path fill="#1296db" d="M361.99 536.76h152.69v36.69H411.55v57.58h88.06v36.99h-88.06v89.5h-49.56V536.76zM557.88 536.76H709.9v36.69H607.43v51.01h87.06v36.99h-87.06v59.07h106.14v36.99h-155.7V536.76z" p-id="1305"/></svg>