<svg xmlns="http://www.w3.org/2000/svg" viewBox="0 0 193 187"><defs><style>.cls-1{fill:#7e2065}.cls-2{fill:#144a74}.cls-3{fill:#12a182}.cls-4{fill:#fa5d19}.cls-5{fill:#523b1b}.cls-6{fill:#00a4e9}.cls-7{fill:#001caa}</style></defs><title>资源 8</title><g id="图层_2" data-name="图层 2"><g id="图层_1-2" data-name="图层 1"><circle cx="13" cy="129" r="12" class="cls-1"/><path d="M155.46,133H113.54a17.93,17.93,0,0,1-4.33,8.2h0l13.05,17.57h0a17.95,17.95,0,0,1,25,11.22h0a94,94,0,0,0,23.06-23.21h0A18,18,0,0,1,155.46,133Z" class="cls-2"/><path d="M186.2,81.23h0A18,18,0,0,1,163.46,68H147.54a17.9,17.9,0,0,1-21.83,13.46h0l-18,33.88h0a18,18,0,0,1,5.84,9.66h41.92a18,18,0,0,1,29-9.86h0A94.1,94.1,0,0,0,187,93.5,95.54,95.54,0,0,0,186.2,81.23Z" class="cls-2"/><path d="M82.38.64A93.32,93.32,0,0,0,.79,81.22a94.54,94.54,0,0,0,1.73,33.92h0a18,18,0,0,1,29,9.86H78.46a17.92,17.92,0,0,1,22.16-13.38h0l17.93-33.73h0a18,18,0,1,1,29-17.89h15.92a18,18,0,0,1,11.26-12.85h0A93.52,93.52,0,0,0,82.38.64Z" class="cls-2"/><path d="M116,163.73l-13.37-18h0A18,18,0,0,1,78.46,133H31.54a18,18,0,0,1-14.88,13.78h0a93.65,93.65,0,0,0,98.11,37.79h0A17.93,17.93,0,0,1,116,163.73Z" class="cls-2"/><circle cx="96" cy="129" r="12" class="cls-3"/><path d="M132.37,52.23a12,12,0,1,0,9.4,9.4A12,12,0,0,0,132.37,52.23Z" class="cls-4"/><circle cx="181" cy="64" r="12" class="cls-5"/><circle cx="173" cy="129" r="12" class="cls-6"/><circle cx="130" cy="175" r="12" class="cls-7"/></g></g></svg>